<?xml version="1.0" encoding="UTF-8" standalone="no"?>
<svg
   width="100%"
   height="100%"
   viewBox="0 0 1080 1080"
   version="1.1"
   xml:space="preserve"
   style="fill-rule:evenodd;clip-rule:evenodd;stroke-linecap:round;stroke-linejoin:round;stroke-miterlimit:1.5;"
   id="svg5"
   xmlns:xlink="http://www.w3.org/1999/xlink"
   xmlns="http://www.w3.org/2000/svg"
   xmlns:svg="http://www.w3.org/2000/svg"><defs
   id="defs5" />
    
    <g
   transform="translate(-37.8127,-73.9534)"
   id="g2">
        <path
   d="M 548.011,768.483 C 532.77,722.3 534.488,736.64 526.868,686.436 516.815,620.197 525.30231,573.21325 567.504,475.624 629.04101,333.32654 645.85914,229.68469 457.24924,229.68469 373.50658,235.81464 309.87811,262.06498 205.16261,324.13326 159.57794,347.86469 70.83,402.629 62.976,399.899 c -4.789,-1.664 -8.021,-2.842 -13.11,-7.714 -8.471,-8.109 -15.65,-25.046 0,-42.715 C 73.153,323.18 131.77066,262.64612 172.333,222.96513 324.65504,73.955256 587.50512,3.7648611 710.01229,181.9142 745.65083,233.73959 778.5789,289.12656 741.67767,385.94223 713.84026,458.97959 690.529,463.094 629.582,588.084 597.36,654.162 608.139,728.486 618.303,783.56 627.687,834.41 613.76566,898.8582 595.16566,888.2442 583.03166,881.3202 553.104,783.914 548.011,768.483 Z"
   style="fill:#651778;stroke:#000000;stroke-width:0.58px"
   id="path1"
   />
    </g>
    <g
   transform="matrix(0.973788,-0.227456,0.323172,1.38357,-160.634,-8.8196)"
   id="g3"
   style="fill:#651778;fill-opacity:1">
        <path
   d="m 120.74387,350.44293 c 29.89,-21.517 87.67059,9.07351 131.53959,19.39251 30.885,7.264 69.967,1.311 99.814,-5.767 42.524,-10.086 85.522,-25.014 88.023,9.603 1.765,24.426 -42.377,35.487 -62.885,40.699 -22.264,5.658 -50.628,18.137 -89.186,16.827 -42.327,-1.439 -97.159,-20.422 -109.52,-25.259 -30.557,-11.958 -87.78259,-33.90051 -57.78559,-55.49551 z"
   style="fill:#651778;fill-opacity:1"
   id="path2"
   />
    </g>
    
    <g
   transform="matrix(1,0,0,0.84749412,-7.3842,307.37411)"
   id="g5">
        <path
   d="M 576.36411,866.83946 C 371.34535,863.27597 317.95949,763.41606 241.96944,644.01654 219.51077,608.72963 222.408,573.784 231.981,558.75 c 9.933,-15.6 25.303,-19.283 55.592,18.041 49.151,60.566 74.89691,160.77565 290.03967,160.36777 C 800.74558,736.73574 811.01,637.357 860.161,576.791 890.45,539.467 905.82,543.15 915.754,558.75 c 9.31673,14.43158 14.68996,39.03866 0,69.061 -66.62332,136.16021 -116.65626,242.89986 -339.38989,239.02846 z"
   style="fill:#651778"
   id="path4"
   />
    </g>
<use
   x="0"
   y="0"
   xlink:href="#g3"
   id="use5"
   transform="matrix(-1,0,0,1,1115.7416,0)" /></svg>
